<svg xmlns="http://www.w3.org/2000/svg" viewBox="0 0 1147 432" width="1147" height="432"><rect width="100%" height="100%" fill="#2e381a"/><path d="M243.09,76.61 A142,142 0 0 1 243.09,355.39" fill="none" stroke="#d5dec8" stroke-width="36" stroke-linecap="round"/><path d="M188.91,355.39 A142,142 0 0 1 188.91,76.61" fill="none" stroke="#d5dec8" stroke-width="36" stroke-linecap="round"/><rect x="187.00" y="187.00" width="58" height="58" rx="9.28" fill="#ab6f30"/><path d="M540.1739130434783 178.43478260869566Q569.1594202898551 178.43478260869566 581.7971014492754 188.28985507246375Q594.4347826086956 198.14492753623188 594.4347826086956 217.6231884057971Q594.6666666666666 233.3913043478261 586.5507246376811 241.15942028985506Q578.4347826086956 248.92753623188406 558.4927536231884 248.92753623188406H494.4927536231884V229.68115942028987H548.9855072463768Q556.8695652173913 229.68115942028987 559.072463768116 226.31884057971016Q561.2753623188406 222.95652173913044 561.2753623188406 216.92753623188406Q561.0434782608695 208.81159420289856 556.5217391304348 205.68115942028987Q552.0 202.55072463768116 541.3333333333334 202.55072463768116Q531.8260869565217 202.55072463768116 526.4927536231885 205.1014492753623Q521.1594202898551 207.6521739130435 519.072463768116 214.84057971014494Q516.9855072463768 222.02898550724638 516.9855072463768 235.71014492753625Q516.9855072463768 250.08695652173913 519.536231884058 257.8550724637681Q522.0869565217391 265.6231884057971 528.231884057971 268.6376811594203Q534.3768115942029 271.6521739130435 545.2753623188406 271.6521739130435Q553.1594202898551 271.6521739130435 564.8695652173913 271.07246376811594Q576.5797101449275 270.4927536231884 588.4057971014493 269.1014492753623L591.6521739130435 290.2028985507246Q584.927536231884 293.4492753623188 576.3478260869565 295.30434782608694Q567.768115942029 297.15942028985506 558.7246376811595 297.9710144927536Q549.6811594202899 298.7826086956522 541.3333333333334 298.7826086956522Q519.536231884058 298.7826086956522 506.2028985507246 292.40579710144925Q492.8695652173913 286.0289855072464 486.95652173913044 272.81159420289856Q481.04347826086956 259.59420289855075 481.04347826086956 238.95652173913044Q481.04347826086956 216.46376811594203 487.07246376811594 203.2463768115942Q493.1014492753623 190.02898550724638 506.0869565217391 184.231884057971Q519.072463768116 178.43478260869566 540.1739130434783 178.43478260869566Z M678.1913043478261 133.2173913043478Q689.5536231884058 133.2173913043478 697.5536231884058 133.79710144927537Q705.5536231884058 134.3768115942029 712.2782608695652 135.53623188405797Q719.0028985507247 136.69565217391303 726.1913043478261 138.78260869565216L723.408695652174 164.75362318840578Q715.7565217391304 164.28985507246378 709.3797101449276 164.05797101449275Q703.0028985507247 163.82608695652175 695.6985507246377 163.71014492753625Q688.3942028985507 163.59420289855072 678.1913043478261 163.59420289855072Q666.3652173913043 163.59420289855072 659.7565217391304 168.231884057971Q653.1478260869566 172.8695652173913 650.3652173913044 184.34782608695653Q647.5826086956522 195.82608695652175 647.5826086956522 216.0Q647.5826086956522 236.17391304347825 650.3652173913044 247.65217391304347Q653.1478260869566 259.1304347826087 659.7565217391304 263.768115942029Q666.3652173913043 268.40579710144925 678.1913043478261 268.40579710144925Q694.1913043478261 268.40579710144925 705.0898550724637 267.94202898550725Q715.9884057971014 267.47826086956525 726.6550724637682 266.3188405797101L729.6695652173913 292.28985507246375Q718.5391304347827 295.768115942029 706.944927536232 297.2753623188406Q695.3507246376812 298.7826086956522 678.1913043478261 298.7826086956522Q653.3797101449276 298.7826086956522 638.4231884057972 290.7826086956522Q623.4666666666667 282.7826086956522 616.8579710144927 264.69565217391306Q610.2492753623188 246.6086956521739 610.2492753623188 216.0Q610.2492753623188 185.39130434782606 616.8579710144927 167.30434782608694Q623.4666666666667 149.2173913043478 638.4231884057972 141.2173913043478Q653.3797101449276 133.2173913043478 678.1913043478261 133.2173913043478Z M810.4115942028986 133.68115942028984Q831.5130434782609 133.68115942028984 844.6144927536233 137.97101449275362Q857.7159420289856 142.26086956521738 863.8608695652175 152.57971014492753Q870.0057971014494 162.8985507246377 870.0057971014494 181.2173913043478Q870.0057971014494 192.3478260869565 867.1072463768116 200.81159420289853Q864.208695652174 209.27536231884056 857.4840579710146 214.37681159420288Q850.7594202898551 219.47826086956522 839.1652173913044 220.8695652173913V222.02898550724638Q843.3391304347826 222.72463768115944 847.8608695652174 225.2753623188406Q852.3826086956523 227.82608695652175 856.3246376811595 232.81159420289856Q860.2666666666668 237.79710144927537 862.1217391304349 246.14492753623188L876.0347826086958 296.0H838.7014492753624L826.4115942028986 247.30434782608694Q824.3246376811595 239.42028985507247 820.2666666666668 236.40579710144928Q816.208695652174 233.3913043478261 809.0202898550725 233.3913043478261Q793.2521739130435 233.3913043478261 782.4695652173914 233.27536231884056Q771.6869565217391 233.15942028985506 764.3826086956522 232.92753623188406Q757.0782608695653 232.69565217391303 751.2811594202899 232.46376811594203L751.976811594203 206.72463768115944H809.7159420289856Q818.9913043478261 206.72463768115944 824.440579710145 204.7536231884058Q829.8898550724639 202.7826086956522 832.0927536231885 197.68115942028987Q834.2956521739131 192.57971014492753 834.2956521739131 183.53623188405797Q834.2956521739131 174.26086956521738 832.0927536231885 169.27536231884056Q829.8898550724639 164.28985507246378 824.440579710145 162.31884057971016Q818.9913043478261 160.34782608695653 809.7159420289856 160.34782608695653Q787.9188405797103 160.34782608695653 772.8463768115944 160.57971014492756Q757.7739130434784 160.81159420289856 752.208695652174 161.27536231884056L748.7304347826088 136.0Q758.4695652173914 134.84057971014494 767.0492753623189 134.3768115942029Q775.6289855072464 133.91304347826087 785.8318840579711 133.79710144927537Q796.0347826086958 133.68115942028984 810.4115942028986 133.68115942028984ZM783.7449275362319 136.0V296.0H748.7304347826088V136.0Z M1059.5014492753623 136.0Q1072.023188405797 136.0 1072.486956521739 148.9855072463768L1078.5159420289856 296.0H1045.8202898550726L1040.486956521739 163.36231884057972H1036.3130434782609L1010.5739130434783 263.07246376811594Q1008.4869565217391 274.2028985507246 996.6608695652175 274.2028985507246H974.4Q962.5739130434783 274.2028985507246 960.0231884057971 263.07246376811594L934.2840579710145 163.36231884057972H930.3420289855072L925.472463768116 296.0H892.5449275362319L898.5739130434783 148.9855072463768Q899.0376811594203 136.0 911.7913043478261 136.0H944.9507246376812Q956.3130434782609 136.0 958.8637681159421 147.36231884057972L979.5014492753623 227.82608695652175Q980.8927536231885 233.3913043478261 981.8202898550726 239.07246376811594Q982.7478260869566 244.7536231884058 983.9072463768116 250.55072463768116H986.9217391304348Q988.0811594202899 244.7536231884058 989.1246376811594 239.07246376811594Q990.168115942029 233.3913043478261 991.3275362318841 227.59420289855072L1011.7333333333333 147.36231884057972Q1014.0521739130435 136.0 1025.646376811594 136.0Z" fill="#ffffff"/></svg>